<svg width="800" height="400" viewBox="0 0 800 400" fill="none" xmlns="http://www.w3.org/2000/svg">
  <!-- Background -->
  <rect width="800" height="400" rx="10" fill="#E2E8F0" />
  
  <!-- AI/ML Project Visualization -->
  <rect x="100" y="80" width="600" height="240" rx="5" fill="#94A3B8" />
  
  <!-- Neural Network Nodes -->
  <circle cx="200" cy="150" r="20" fill="#E2E8F0" />
  <circle cx="200" cy="200" r="20" fill="#E2E8F0" />
  <circle cx="200" cy="250" r="20" fill="#E2E8F0" />
  
  <circle cx="400" cy="130" r="20" fill="#E2E8F0" />
  <circle cx="400" cy="180" r="20" fill="#E2E8F0" />
  <circle cx="400" cy="230" r="20" fill="#E2E8F0" />
  <circle cx="400" cy="280" r="20" fill="#E2E8F0" />
  
  <circle cx="600" cy="150" r="20" fill="#E2E8F0" />
  <circle cx="600" cy="200" r="20" fill="#E2E8F0" />
  <circle cx="600" cy="250" r="20" fill="#E2E8F0" />
  
  <!-- Neural Network Connections -->
  <!-- Input to Hidden Layer -->
  <line x1="220" y1="150" x2="380" y2="130" stroke="#E2E8F0" stroke-width="2" />
  <line x1="220" y1="150" x2="380" y2="180" stroke="#E2E8F0" stroke-width="2" />
  <line x1="220" y1="150" x2="380" y2="230" stroke="#E2E8F0" stroke-width="2" />
  <line x1="220" y1="150" x2="380" y2="280" stroke="#E2E8F0" stroke-width="2" />
  
  <line x1="220" y1="200" x2="380" y2="130" stroke="#E2E8F0" stroke-width="2" />
  <line x1="220" y1="200" x2="380" y2="180" stroke="#E2E8F0" stroke-width="2" />
  <line x1="220" y1="200" x2="380" y2="230" stroke="#E2E8F0" stroke-width="2" />
  <line x1="220" y1="200" x2="380" y2="280" stroke="#E2E8F0" stroke-width="2" />
  
  <line x1="220" y1="250" x2="380" y2="130" stroke="#E2E8F0" stroke-width="2" />
  <line x1="220" y1="250" x2="380" y2="180" stroke="#E2E8F0" stroke-width="2" />
  <line x1="220" y1="250" x2="380" y2="230" stroke="#E2E8F0" stroke-width="2" />
  <line x1="220" y1="250" x2="380" y2="280" stroke="#E2E8F0" stroke-width="2" />
  
  <!-- Hidden to Output Layer -->
  <line x1="420" y1="130" x2="580" y2="150" stroke="#E2E8F0" stroke-width="2" />
  <line x1="420" y1="130" x2="580" y2="200" stroke="#E2E8F0" stroke-width="2" />
  <line x1="420" y1="130" x2="580" y2="250" stroke="#E2E8F0" stroke-width="2" />
  
  <line x1="420" y1="180" x2="580" y2="150" stroke="#E2E8F0" stroke-width="2" />
  <line x1="420" y1="180" x2="580" y2="200" stroke="#E2E8F0" stroke-width="2" />
  <line x1="420" y1="180" x2="580" y2="250" stroke="#E2E8F0" stroke-width="2" />
  
  <line x1="420" y1="230" x2="580" y2="150" stroke="#E2E8F0" stroke-width="2" />
  <line x1="420" y1="230" x2="580" y2="200" stroke="#E2E8F0" stroke-width="2" />
  <line x1="420" y1="230" x2="580" y2="250" stroke="#E2E8F0" stroke-width="2" />
  
  <line x1="420" y1="280" x2="580" y2="150" stroke="#E2E8F0" stroke-width="2" />
  <line x1="420" y1="280" x2="580" y2="200" stroke="#E2E8F0" stroke-width="2" />
  <line x1="420" y1="280" x2="580" y2="250" stroke="#E2E8F0" stroke-width="2" />
  
  <!-- Decorative Elements -->
  <circle cx="100" cy="100" r="30" fill="#3B82F6" opacity="0.3" />
  <circle cx="700" cy="300" r="30" fill="#3B82F6" opacity="0.3" />
  
  <!-- Project Title -->
  <text x="400" y="350" font-family="Arial" font-size="24" fill="#475569" text-anchor="middle">AI/ML Project</text>
</svg>